<?xml version="1.0" encoding="utf-8" ?>
<svg baseProfile="full" height="2048" version="1.1" width="2048" xmlns="http://www.w3.org/2000/svg" xmlns:ev="http://www.w3.org/2001/xml-events" xmlns:xlink="http://www.w3.org/1999/xlink"><defs /><path d="M 976 910 L 972 910 L 967 908 L 959 908 L 958 909 L 939 910 L 938 911 L 925 911 L 924 910 L 919 912 L 915 912 L 916 913 L 915 915 L 916 924 L 923 935 L 927 939 L 939 947 L 947 955 L 953 958 L 961 967 L 963 973 L 962 986 L 958 1004 L 956 1007 L 955 1014 L 953 1017 L 952 1023 L 950 1026 L 949 1032 L 942 1053 L 935 1069 L 933 1077 L 935 1070 L 937 1069 L 937 1065 L 939 1064 L 941 1061 L 941 1058 L 943 1057 L 942 1053 L 945 1051 L 945 1049 L 947 1045 L 949 1044 L 953 1033 L 959 1025 L 959 1023 L 962 1021 L 969 1007 L 982 995 L 987 995 L 990 998 L 990 996 L 994 994 L 996 995 L 998 993 L 1003 994 L 1005 992 L 1007 993 L 1010 992 L 1010 989 L 1018 983 L 1018 980 L 1021 974 L 1021 956 L 1018 946 L 1015 943 L 1010 934 L 994 919 L 986 914 Z" fill="#111111" fill-rule="evenodd" stroke="none" /><path d="M 1045 731 L 941 790 L 916 796 L 916 803 L 925 810 L 974 823 L 986 821 L 1038 790 L 1047 789 L 1040 1007 L 997 1059 L 931 1122 L 921 1127 L 916 1115 L 914 1121 L 910 1117 L 907 1128 L 887 1145 L 885 1167 L 891 1185 L 910 1211 L 930 1218 L 945 1210 L 950 1223 L 945 1228 L 950 1225 L 957 1237 L 946 1231 L 969 1273 L 1013 1321 L 1023 1339 L 1037 1348 L 1055 1350 L 1065 1346 L 1092 1313 L 1104 1264 L 1100 1041 L 1104 931 L 1129 843 L 1106 893 L 1111 832 L 1122 812 L 1120 792 L 1096 758 L 1078 743 L 1055 731 Z" fill="#111111" fill-rule="evenodd" stroke="none" /><path d="M 1039 1059 L 1041 1067 L 1041 1084 L 1042 1088 L 1041 1089 L 1041 1106 L 1040 1107 L 1041 1109 L 1040 1113 L 1041 1116 L 1040 1119 L 1040 1126 L 1041 1127 L 1040 1131 L 1040 1137 L 1041 1138 L 1041 1142 L 1040 1143 L 1041 1163 L 1040 1164 L 1040 1184 L 1038 1191 L 1039 1195 L 1038 1196 L 1037 1236 L 1035 1239 L 1034 1250 L 1030 1258 L 1028 1260 L 1021 1260 L 1020 1259 L 1018 1260 L 1015 1258 L 1009 1258 L 1006 1256 L 1001 1255 L 997 1252 L 994 1252 L 988 1248 L 985 1248 L 978 1241 L 971 1237 L 968 1233 L 968 1231 L 962 1225 L 961 1221 L 955 1215 L 953 1210 L 949 1205 L 949 1202 L 952 1199 L 955 1194 L 955 1192 L 962 1183 L 964 1177 L 971 1166 L 979 1157 L 980 1154 L 987 1147 L 987 1145 L 991 1142 L 995 1135 L 999 1131 L 999 1129 L 1004 1124 L 1005 1118 L 1013 1108 L 1012 1107 L 1013 1105 L 1012 1102 L 1016 1099 L 1016 1097 L 1020 1092 L 1019 1089 L 1028 1079 L 1026 1078 L 1027 1076 L 1029 1076 L 1028 1073 L 1037 1060 Z" fill="white" fill-rule="evenodd" stroke="none" /><path d="M 1275 682 L 1255 685 L 1235 707 L 1173 743 L 1152 770 L 1144 798 L 1166 770 L 1228 757 L 1263 740 L 1259 994 L 1159 1091 L 1141 1097 L 1138 1078 L 1134 1087 L 1139 1060 L 1162 1016 L 1204 975 L 1229 967 L 1239 940 L 1224 909 L 1198 888 L 1155 883 L 1129 891 L 1132 904 L 1172 936 L 1175 952 L 1119 1125 L 1147 1165 L 1181 1174 L 1262 1070 L 1265 1205 L 1255 1268 L 1207 1254 L 1150 1199 L 1186 1260 L 1173 1252 L 1187 1270 L 1184 1276 L 1174 1265 L 1245 1359 L 1280 1375 L 1318 1345 L 1337 1283 L 1328 964 L 1371 852 L 1397 745 L 1332 889 L 1336 823 L 1355 750 L 1330 715 Z" fill="#111111" fill-rule="evenodd" stroke="none" /><path d="M 1186 1277 L 1187 1276 L 1188 1276 L 1189 1277 L 1189 1278 L 1192 1281 L 1192 1282 L 1193 1282 L 1194 1283 L 1195 1283 L 1196 1284 L 1196 1285 L 1195 1286 L 1194 1286 L 1193 1285 L 1192 1285 L 1191 1284 L 1190 1284 L 1189 1283 L 1189 1282 L 1187 1280 L 1187 1279 L 1186 1278 Z" fill="white" fill-rule="evenodd" stroke="none" /><path d="M 839 695 L 823 683 L 805 675 L 799 675 L 791 671 L 784 670 L 771 671 L 764 668 L 759 668 L 755 665 L 749 665 L 744 669 L 744 671 L 741 674 L 742 676 L 741 685 L 745 689 L 748 699 L 763 715 L 770 720 L 771 723 L 778 730 L 780 740 L 770 763 L 766 767 L 766 769 L 759 781 L 744 801 L 741 803 L 736 811 L 729 818 L 727 823 L 729 823 L 748 807 L 757 802 L 764 796 L 773 792 L 774 794 L 771 798 L 777 793 L 782 791 L 783 789 L 786 789 L 792 785 L 794 786 L 798 782 L 800 782 L 801 784 L 803 783 L 804 785 L 808 785 L 810 783 L 812 783 L 813 785 L 819 784 L 820 785 L 839 786 L 849 783 L 851 779 L 854 779 L 858 775 L 864 764 L 866 757 L 865 755 L 865 741 L 864 740 L 865 737 L 860 723 L 852 711 L 850 710 L 847 704 L 840 698 Z" fill="#111111" fill-rule="evenodd" stroke="none" /><path d="M 1566 537 L 1516 548 L 1467 586 L 1423 655 L 1397 736 L 1426 669 L 1427 677 L 1450 633 L 1494 588 L 1540 570 L 1564 572 L 1592 586 L 1620 627 L 1629 667 L 1630 707 L 1605 878 L 1610 926 L 1641 993 L 1662 1013 L 1702 1034 L 1650 1072 L 1616 1134 L 1609 1202 L 1628 1348 L 1624 1413 L 1602 1465 L 1579 1489 L 1538 1511 L 1542 1523 L 1571 1517 L 1633 1486 L 1666 1451 L 1683 1420 L 1697 1369 L 1700 1325 L 1679 1192 L 1679 1121 L 1698 1077 L 1719 1058 L 1751 1044 L 1757 1026 L 1749 1014 L 1716 1001 L 1693 974 L 1685 922 L 1708 722 L 1692 635 L 1674 599 L 1633 556 L 1595 540 Z" fill="#111111" fill-rule="evenodd" stroke="none" /><path d="M 499 534 L 416 568 L 362 631 L 343 750 L 364 934 L 344 980 L 285 1018 L 288 1041 L 337 1063 L 359 1104 L 340 1321 L 357 1424 L 410 1493 L 496 1518 L 583 1476 L 673 1338 L 741 1291 L 849 1185 L 919 1044 L 857 1116 L 792 1165 L 878 1051 L 898 1001 L 894 976 L 868 954 L 828 953 L 742 1055 L 734 1042 L 738 997 L 765 952 L 815 910 L 905 866 L 899 836 L 880 824 L 823 817 L 803 840 L 694 892 L 637 895 L 677 943 L 746 944 L 687 1072 L 703 1138 L 737 1158 L 755 1145 L 775 1035 L 817 981 L 828 982 L 805 1079 L 745 1189 L 653 1259 L 628 1364 L 580 1443 L 510 1483 L 448 1458 L 425 1417 L 416 1356 L 436 1212 L 430 1131 L 402 1066 L 338 1022 L 394 983 L 427 922 L 434 850 L 417 651 L 437 596 L 504 548 Z" fill="#111111" fill-rule="evenodd" stroke="none" /><path d="M 649 1379 L 650 1380 L 650 1382 L 649 1383 L 649 1385 L 648 1386 L 647 1386 L 646 1385 L 646 1382 L 647 1381 L 647 1380 L 648 1379 Z" fill="white" fill-rule="evenodd" stroke="none" /><path d="M 769 1178 L 771 1180 L 771 1181 L 770 1182 L 768 1182 L 766 1184 L 765 1184 L 764 1183 L 764 1182 L 768 1178 Z" fill="white" fill-rule="evenodd" stroke="none" /><path d="M 809 1131 L 810 1132 L 810 1135 L 807 1138 L 807 1139 L 804 1142 L 804 1146 L 802 1148 L 800 1148 L 800 1149 L 797 1152 L 797 1153 L 796 1154 L 796 1155 L 794 1157 L 794 1158 L 792 1160 L 792 1161 L 791 1162 L 791 1163 L 790 1164 L 790 1165 L 791 1166 L 791 1167 L 790 1168 L 789 1168 L 787 1170 L 786 1170 L 784 1172 L 783 1172 L 780 1175 L 777 1175 L 776 1174 L 776 1173 L 778 1171 L 778 1170 L 780 1168 L 780 1167 L 781 1166 L 781 1165 L 783 1163 L 783 1162 L 784 1161 L 785 1161 L 785 1160 L 786 1159 L 786 1158 L 789 1155 L 789 1154 L 790 1153 L 791 1153 L 791 1152 L 792 1151 L 792 1149 L 794 1147 L 794 1146 L 795 1145 L 798 1145 L 798 1143 L 801 1140 L 801 1139 L 806 1134 L 806 1133 L 808 1131 Z" fill="white" fill-rule="evenodd" stroke="none" /><circle cx="1344.8332571950662" cy="1313.2352672453176" fill="#b64034" r="26" /></svg>